<?xml version="1.0" encoding="utf-8"?>
<svg version="1.1" id="Layer_1" xmlns="http://www.w3.org/2000/svg" xmlns:xlink="http://www.w3.org/1999/xlink" x="0px" y="0px"
	 viewBox="0 0 36 36" style="enable-background:new 0 0 36 36;" xml:space="preserve">
<style type="text/css">
	.st0{fill:#FFFFFF;}
</style>
<path class="st0" d="M27.9,12.6L27.9,12.6c-0.1-0.2-0.2-0.4-0.4-0.5l-8.9-4.9C18.4,7,18.2,7,18,7c-0.2,0-0.4,0.1-0.6,0.1l-8.9,5
	C8.2,12.3,8,12.7,8,13V23c0,0.2,0,0.4,0.2,0.6l0,0c0.1,0.1,0.2,0.3,0.4,0.3l8.9,5C17.6,29,17.8,29,18,29c0.2,0,0.4-0.1,0.6-0.1
	l8.9-5c0.3-0.2,0.5-0.6,0.5-1V13C28,12.9,28,12.7,27.9,12.6z M21.3,18.3v-0.7h0.9v-0.9h0.9v0.9h0.9v0.7h-0.9v0.9h-0.9v-0.9H21.3z
	 M22,15.9c-0.8-1.3-2.3-2.2-3.9-2.2c-2.5,0-4.5,2-4.5,4.4c0,2.4,2,4.4,4.5,4.4c1.7,0,3.2-0.9,3.9-2.2l2.4,1.4
	C23.1,23.6,20.7,25,18,25c-4,0-7.3-3.1-7.3-7c0-3.9,3.3-7,7.3-7c2.7,0,5.1,1.4,6.4,3.6L22,15.9z M27.5,18.3h-0.9v0.9h-0.7v-0.9h-1.1
	v-0.7h1.1v-0.9h0.7v0.9h0.9V18.3z"/>
</svg>
